<svg aria-hidden="true" style="position:absolute;width:0;height:0;overflow:hidden" xmlns="http://www.w3.org/2000/svg"><defs>
<symbol id="icon-Facebook" viewBox="0 0 33 32"><path d="M0 0h32.561v32H0z"/></symbol>
<symbol id="icon-Instagram" viewBox="0 0 32 32"><path d="M0 0h32v32H0z"/></symbol>
<symbol id="icon-logo-burger-dark" viewBox="0 0 37 32"><path style="fill:var(--color1, #000)" d="M3.618 0h29.816a3.618 3.618 0 0 1 3.618 3.618v24.75a3.618 3.618 0 0 1-3.618 3.618H3.618A3.618 3.618 0 0 1 0 28.368V3.618A3.618 3.618 0 0 1 3.618 0z"/><path fill="#d67216" style="fill:var(--color2, #d67216)" d="m8.763 7.341-1.587-.154L7.09 9.87l.029 3.125-.539.135a2.8 2.8 0 0 1-.51-.337 1.79 1.79 0 0 1-.418-.519l-.005-.01.452-2.519-.077-2.519-1.52.231a2.76 2.76 0 0 1-.415-.319l.002.002a3.537 3.537 0 0 1-.365-.414l.183-.558 2.769.077 1.49-.202c.205.141.369.272.49.394.122.115.225.234.308.356l-.202.548zm1.227.125a3.437 3.437 0 0 1-.904-.712.79.79 0 0 1 .125-.346 1.98 1.98 0 0 1 .288-.365.734.734 0 0 1 .327-.211c.103 0 .218.042.346.125.136.083.252.178.355.287l.001.001a.641.641 0 0 1 .193.317.8.8 0 0 1-.135.365 1.884 1.884 0 0 1-.288.346.917.917 0 0 1-.308.192zm1.057 4.221c.045.077.099.195.163.356.058.132.099.285.115.446l.001.006-1.298.635c-.487-.224-.821-.513-1-.865l.202-3.019-.702.211a3.05 3.05 0 0 1-.163-.346 1.597 1.597 0 0 1-.115-.461l1.298-.635c.064.006.157.042.279.106s.24.135.356.211c.122.077.215.141.279.192l-.269 2.115v1.308l.856-.26zm3.896-.058c.045.058.093.16.144.308s.074.285.067.414a5.72 5.72 0 0 1-.557.291l-.04.016a8.837 8.837 0 0 1-.565.247l-.089.032a6.15 6.15 0 0 1-.468.177l-.052.015a2.956 2.956 0 0 1-.548-.24 2.749 2.749 0 0 1-.541-.387l.002.002a1.114 1.114 0 0 1-.298-.461l.211-2.75-.74.144-.24-.654.99-.856-.067-.769c.118-.123.247-.233.386-.331l.008-.006c.154-.115.301-.202.442-.26l.356.25-.038 1.337c.232-.024.512-.041.795-.048h.013l.169-.002c.235 0 .467.011.697.033l-.029-.002.096.769-.298.308a12.443 12.443 0 0 0-1.496-.028l.024-.001a8.988 8.988 0 0 0-.095.917l-.001.025a8.718 8.718 0 0 0 .002 1.034l-.001-.024c.019.327.064.628.135.904l1.625-.404zm1.958-4.163a3.42 3.42 0 0 1-.904-.712.778.778 0 0 1 .125-.346 1.98 1.98 0 0 1 .288-.365.734.734 0 0 1 .327-.211c.103 0 .218.042.346.125.136.083.252.178.355.287l.001.001a.641.641 0 0 1 .193.317.8.8 0 0 1-.135.365 1.884 1.884 0 0 1-.288.346.917.917 0 0 1-.308.192zm1.058 4.221c.045.077.099.195.163.356.064.154.103.305.115.452l-1.298.635c-.487-.224-.821-.513-1-.865l.202-3.019-.702.211a3.05 3.05 0 0 1-.163-.346 1.597 1.597 0 0 1-.115-.461l1.298-.635c.064.006.157.042.279.106s.24.135.356.211c.122.077.215.141.279.192l-.269 2.115v1.308l.856-.26z"/><path fill="#fff" style="fill:var(--color3, #fff)" d="m5.56 26.822.886-.178.072.147a.897.897 0 0 1-.129.181c-.05.054-.103.104-.158.15l-.003.002h-.563a.389.389 0 0 1-.123-.046 1.32 1.32 0 0 1-.159-.101l.004.003a1.207 1.207 0 0 1-.141-.123.36.36 0 0 1-.078-.118l.078-1.288c.027-.044.053-.081.082-.117l-.002.002c.037-.046.076-.09.118-.132.042-.044.08-.08.115-.109.126-.025.271-.04.42-.04.142 0 .283.021.423.063a.49.49 0 0 1 .08.098.74.74 0 0 1 .063.104l-.04.423a.441.441 0 0 1-.129.02.77.77 0 0 1-.138-.011l-.04-.36a2.095 2.095 0 0 0-.296-.003h.006a1.12 1.12 0 0 0-.287.048l.008-.002c-.029.092-.053.2-.072.325-.016.11-.028.244-.034.38v.008a3.948 3.948 0 0 0 0 .377c.008.119.021.219.04.299zm1.454-2.044a.343.343 0 0 1 .15.072c.052.038.09.083.115.132v.187c-.025.064-.05.117-.078.168l.003-.007a3.532 3.532 0 0 1-.235.382l-.173-.106.152-.354-.141-.299a.541.541 0 0 1 .207-.175zm1.452 1.894a.348.348 0 0 1 .043.101.36.36 0 0 1 .023.132 8.707 8.707 0 0 1-.259.104l-.253.092c-.077.029-.14.052-.19.069a.924.924 0 0 1-.192-.074l.005.003a.958.958 0 0 1-.18-.116l.002.001a.453.453 0 0 1-.115-.138l.04-.88a.67.67 0 0 1 .112-.144c.05-.05.099-.095.147-.135.094-.023.206-.039.319-.046h.005a1.457 1.457 0 0 1 .315.015l-.008-.001a1.999 1.999 0 0 1 .158.158.525.525 0 0 1 .057.072l-.012.428a1.336 1.336 0 0 1-.193.112l-.008.003a3.451 3.451 0 0 1-.584.216c.003.076.012.147.024.217l-.001-.01.742-.178zm-.288-.721a1.062 1.062 0 0 0-.204-.008h.003a1.034 1.034 0 0 0-.204.034 1.194 1.194 0 0 0-.045.185l-.001.008c-.012.069-.02.139-.026.21.194-.065.362-.147.518-.247l-.009.005-.032-.187zm.834.017a.445.445 0 0 0 .135.158c.061.044.13.091.207.141.077.048.152.105.227.173a.935.935 0 0 1 .204.25c-.015.088-.043.172-.083.25s-.089.14-.147.184c-.093.025-.2.039-.31.04h-.042c-.114 0-.225-.012-.332-.034l.011.002a1.9 1.9 0 0 1-.088-.073l.002.002a.83.83 0 0 1-.085-.093l-.001-.002.014-.377a.423.423 0 0 1 .115-.02.341.341 0 0 1 .121.009l.046.313c.084.013.17.014.259.003a.79.79 0 0 0 .224-.063.787.787 0 0 0-.178-.168l-.003-.002a3.701 3.701 0 0 0-.206-.136l-.018-.01a1.559 1.559 0 0 1-.216-.17l.001.001a.658.658 0 0 1-.151-.229l-.002-.004a1.02 1.02 0 0 1 .106-.302.465.465 0 0 1 .092-.118 1.33 1.33 0 0 1 .356-.052h.001c.113-.002.234.01.362.037a.283.283 0 0 1 .078.08c.029.038.051.069.066.092l-.04.357a.327.327 0 0 1-.106.017h-.007a.68.68 0 0 1-.121-.011l-.026-.293a1.614 1.614 0 0 0-.245.003h.006c-.08.008-.156.023-.227.046zm2.007.753c.013.017.028.048.043.092s.022.085.02.123c-.052.031-.111.061-.178.092a3.785 3.785 0 0 1-.334.136l-.016.005a.925.925 0 0 1-.168-.074l.004.002a.846.846 0 0 1-.162-.116l.001.001a.327.327 0 0 1-.089-.138l.063-.822-.221.043-.072-.196.296-.256-.02-.23a.807.807 0 0 1 .118-.101.668.668 0 0 1 .132-.078l.106.075-.012.4a2.713 2.713 0 0 1 .491-.005l.029.23-.089.092a3.788 3.788 0 0 0-.447-.008h.007a2.798 2.798 0 0 0-.029.591v-.007c.006.098.019.188.04.27l.486-.121zm1.144-1.244a.99.99 0 0 1-.269-.212l-.001-.001a.238.238 0 0 1 .037-.104.617.617 0 0 1 .086-.109.208.208 0 0 1 .098-.063c.03 0 .065.012.103.037a.506.506 0 0 1 .106.086.18.18 0 0 1 .057.095.236.236 0 0 1-.04.109.54.54 0 0 1-.086.103.281.281 0 0 1-.09.057l-.002.001zm.439 1.201-.388.333-.017.756a.618.618 0 0 1-.147.017h-.015.001a.688.688 0 0 1-.164-.017 1.218 1.218 0 0 1-.087-.111l-.002-.004a.927.927 0 0 1-.084-.152l-.002-.006c.021-.098.054-.201.098-.31s.095-.205.156-.292l-.003.005.006-.891-.224.066a.979.979 0 0 1-.047-.097l-.002-.006a.476.476 0 0 1-.034-.136v-.002l.388-.19c.019.002.047.013.083.032s.072.04.106.063a.921.921 0 0 1 .083.057l-.089.837c.038-.042.076-.081.112-.115.035-.034.072-.066.112-.095l.003-.002c.031.031.061.071.092.121s.053.097.066.141zm1.566.078c.013.023.03.056.049.098a.37.37 0 0 1 .035.127l-.388.19a.263.263 0 0 1-.083-.032 1.83 1.83 0 0 1-.115-.069l.009.005a2.07 2.07 0 0 1-.081-.057l.004.003.012-.239a2.2 2.2 0 0 1-.297.275l-.005.004c-.098.073-.174.109-.23.109a.796.796 0 0 1-.116-.082l.001.001a1.032 1.032 0 0 1-.128-.128l-.001-.002a.376.376 0 0 1-.078-.138l.066-.819-.213.054a.452.452 0 0 1-.051-.095l-.001-.003a.429.429 0 0 1-.031-.128v-.002l.388-.19c.05.025.103.057.158.098.057.04.102.084.132.132a2.225 2.225 0 0 0-.074.354l-.001.011a2.8 2.8 0 0 0-.017.345c0 .093.009.183.024.271l-.001-.009a.687.687 0 0 0 .23-.178c.084-.092.162-.197.233-.313l.014-.635a1.84 1.84 0 0 1 .155-.031l.009-.001a.399.399 0 0 1 .164.003c.031.031.058.064.08.101s.044.075.063.115a.827.827 0 0 1-.063.25 1.564 1.564 0 0 1-.139.271l.004-.006v.006l.035.397.25-.063zm.498-.788a.445.445 0 0 0 .135.158c.051.037.118.084.187.129l.02.012c.077.048.152.105.227.173a.935.935 0 0 1 .204.25c-.015.088-.043.172-.083.25s-.089.14-.147.184c-.093.025-.2.039-.31.04h-.042c-.114 0-.225-.012-.332-.034l.011.002a1.9 1.9 0 0 1-.088-.073l.002.002a.83.83 0 0 1-.085-.093l-.001-.002.014-.377a.423.423 0 0 1 .115-.02.341.341 0 0 1 .121.009l.046.313a.934.934 0 0 0 .259.003.79.79 0 0 0 .224-.063.787.787 0 0 0-.178-.168l-.003-.002a3.701 3.701 0 0 0-.206-.136l-.018-.01a1.559 1.559 0 0 1-.216-.17l.001.001a.658.658 0 0 1-.151-.229l-.002-.004a1.02 1.02 0 0 1 .106-.302.465.465 0 0 1 .092-.118 1.33 1.33 0 0 1 .356-.052h.001c.113-.002.234.01.362.037a.283.283 0 0 1 .078.08c.029.038.051.069.066.092l-.04.357a.327.327 0 0 1-.106.017h-.007a.66.66 0 0 1-.12-.011l-.026-.293a1.614 1.614 0 0 0-.245.003h.006a1.066 1.066 0 0 0-.234.048l.008-.002zm2.007.753c.013.017.028.048.043.092s.022.085.02.123a1.812 1.812 0 0 1-.166.087l-.012.005a3.467 3.467 0 0 1-.335.136l-.016.005a.925.925 0 0 1-.168-.074l.004.002a.846.846 0 0 1-.162-.116l.001.001a.327.327 0 0 1-.089-.138l.063-.822-.221.043-.072-.196.296-.256-.02-.23a.807.807 0 0 1 .118-.101.668.668 0 0 1 .132-.078l.106.075-.011.4a2.713 2.713 0 0 1 .491-.005l.029.23-.089.092a3.788 3.788 0 0 0-.447-.008h.007a2.794 2.794 0 0 0-.029.59v-.007c.005.099.02.191.042.28l-.002-.01.486-.121zm2.271.035c.013.023.03.056.049.098.019.04.031.082.034.127l-.388.19a.263.263 0 0 1-.083-.032 2.241 2.241 0 0 1-.116-.069l.009.005a3.263 3.263 0 0 1-.081-.057l.004.003.011-.239a2.246 2.246 0 0 1-.302.279c-.098.073-.174.109-.23.109a.726.726 0 0 1-.116-.082l.001.001a1.032 1.032 0 0 1-.128-.128l-.001-.002a.376.376 0 0 1-.078-.138l.066-.819-.213.054a.452.452 0 0 1-.051-.095l-.001-.003a.462.462 0 0 1-.032-.128v-.002l.388-.19c.05.025.103.057.158.098a.46.46 0 0 1 .132.132 2.225 2.225 0 0 0-.074.354l-.001.011a2.8 2.8 0 0 0-.017.345c.002.106.01.193.023.262a.678.678 0 0 0 .23-.178c.084-.092.162-.197.233-.313l.014-.635c.044-.011.099-.022.164-.032a.399.399 0 0 1 .164.003c.031.031.057.064.08.101s.044.075.063.115a.827.827 0 0 1-.063.25 1.564 1.564 0 0 1-.139.271l.004-.006v.006l.034.397.25-.063zm1.696-.003a.506.506 0 0 1 .084.228l-.388.19a1.133 1.133 0 0 1-.161-.1l.003.002a.54.54 0 0 1-.131-.13l-.001-.002c.035-.121.057-.243.069-.365s.014-.237.009-.342a1.228 1.228 0 0 0-.032-.262.537.537 0 0 0-.155.112c-.058.057-.11.118-.158.183l-.003.004c-.05.068-.1.145-.144.225l-.005.011-.017.618a.55.55 0 0 1-.138.017h-.016a.592.592 0 0 1-.147-.018l.004.001a.86.86 0 0 1-.145-.211l-.002-.005a1.706 1.706 0 0 1 .17-.477l.003-.043-.034-.397-.25.063a.952.952 0 0 1-.045-.086l-.004-.009a.378.378 0 0 1-.034-.128v-.002l.388-.19a.237.237 0 0 1 .08.032c.036.019.072.04.106.063a.427.427 0 0 1 .08.055l-.011.241a1.54 1.54 0 0 1 .322-.287.55.55 0 0 1 .27-.104c.029.015.06.042.095.08s.066.081.095.129a.46.46 0 0 1 .06.138l-.049.825.233-.06zm1.82-1.113c.034.015.071.04.109.075s.073.074.104.118a.412.412 0 0 1 .069.135l-.043.854a.564.564 0 0 1-.078.109c-.036.04-.074.076-.113.111l-.002.001a.939.939 0 0 1-.119.084l-.004.002c-.14.019-.283.03-.428.034a1.249 1.249 0 0 1-.388-.04 1.315 1.315 0 0 1-.059-.075l-.004-.005a.934.934 0 0 1-.052-.084l-.003-.005a.431.431 0 0 1-.028-.061l-.001-.003c.01-.056.022-.11.037-.164.017-.056.036-.109.057-.161l.003-.181.009-1.251-.224.057a1.127 1.127 0 0 1-.046-.087l-.003-.008a.403.403 0 0 1-.035-.128v-.002l.388-.19a.276.276 0 0 1 .081.029.798.798 0 0 1 .186.12l-.08 1.176c.079-.096.159-.178.241-.247.069-.059.146-.112.229-.155l.007-.003a.44.44 0 0 1 .19-.057zm-.636 1.242c.08.004.162.001.244-.009a2.95 2.95 0 0 0 .273-.044l-.02.004a2.065 2.065 0 0 0 .083-.65 1.22 1.22 0 0 0-.02-.216.534.534 0 0 0-.19.124c-.074.072-.141.15-.201.234l-.003.005a2.123 2.123 0 0 0-.173.284l-.006.013.012.256zm2.619-.126c.013.023.03.056.049.098.019.04.031.082.034.127l-.388.19a.263.263 0 0 1-.083-.032 2.241 2.241 0 0 1-.116-.069l.009.005a3.263 3.263 0 0 1-.081-.057l.004.003.011-.239a2.246 2.246 0 0 1-.302.279c-.098.073-.174.109-.23.109a.726.726 0 0 1-.116-.082l.001.001a1.032 1.032 0 0 1-.128-.128l-.001-.002a.376.376 0 0 1-.078-.138l.066-.819-.213.054a.452.452 0 0 1-.051-.095l-.001-.003a.429.429 0 0 1-.031-.128v-.002l.388-.19c.05.025.103.057.158.098a.46.46 0 0 1 .132.132 2.123 2.123 0 0 0-.073.354l-.001.011a2.8 2.8 0 0 0-.017.345c.002.106.01.193.023.262a.678.678 0 0 0 .23-.178c.084-.092.162-.197.233-.313l.014-.635a1.84 1.84 0 0 1 .155-.031l.009-.001a.399.399 0 0 1 .164.003c.031.031.057.064.08.101s.044.075.063.115a.827.827 0 0 1-.063.25 1.564 1.564 0 0 1-.139.271l.004-.006v.006l.034.397.25-.063zm1.119-1.116a.363.363 0 0 1 .127.129.602.602 0 0 1 .089.193l-.026.359a.335.335 0 0 1-.121.051h-.002a.885.885 0 0 1-.136.017h-.002l-.069-.066a1.82 1.82 0 0 0 .017-.187.574.574 0 0 0-.006-.147.678.678 0 0 0-.167.193 2.066 2.066 0 0 0-.133.262l-.005.014.009.664a.551.551 0 0 1-.139.017h-.009a.625.625 0 0 1-.15-.017.83.83 0 0 1-.144-.211l-.002-.005c.017-.08.037-.147.061-.213l-.004.011c.025-.073.054-.145.086-.216v-.104l-.034-.397-.25.063a1.144 1.144 0 0 1-.045-.087l-.004-.008a.378.378 0 0 1-.034-.128v-.002l.388-.19a.237.237 0 0 1 .08.032c.036.019.072.04.106.063a.427.427 0 0 1 .08.055l-.011.227c.072-.101.15-.19.237-.269l.001-.001c.08-.071.15-.106.21-.106zm1.633.314a1.764 1.764 0 0 1-.148.407l.005-.01.066.946a1.01 1.01 0 0 1-.088.149l.002-.003c-.04.06-.081.113-.125.162l.001-.001a.713.713 0 0 1-.13.122l-.002.001a1.914 1.914 0 0 1-.563.052 2.102 2.102 0 0 1-.284-.034l.013.002-.001-.037c0-.027.001-.054.004-.081v.003c.004-.044.01-.088.017-.132a.437.437 0 0 1 .035-.106 1.544 1.544 0 0 0 .457.072c.084 0 .162-.005.233-.014.041-.093.072-.201.086-.314l.001-.006c.013-.109.021-.242.023-.397a1.718 1.718 0 0 1-.325.308.646.646 0 0 1-.288.127.581.581 0 0 1-.106-.081 1.39 1.39 0 0 1-.113-.129l-.002-.003a.434.434 0 0 1-.068-.138l-.001-.003.06-.793a.842.842 0 0 1 .124-.185l-.001.001a.91.91 0 0 1 .159-.151l.002-.002c.138-.025.272-.039.403-.043.13-.006.274.016.431.066.021.023.04.051.057.083a.74.74 0 0 1 .041.089l.002.006a.274.274 0 0 1 .023.066zm-.905.865a.699.699 0 0 0 .241-.175c.09-.093.169-.198.235-.311l.004-.008-.003-.394-.04-.001c-.143 0-.282.02-.413.058l.011-.003a1.51 1.51 0 0 0-.073.284l-.001.009c-.012.082-.02.176-.02.273v.001c.002.082.009.148.02.198s.025.073.04.069zm2.15-.147a.348.348 0 0 1 .043.101.36.36 0 0 1 .023.132 9.952 9.952 0 0 1-.259.104l-.253.092c-.077.029-.14.052-.19.069a.924.924 0 0 1-.192-.074l.005.003a.958.958 0 0 1-.18-.116l.002.001a.453.453 0 0 1-.115-.138l.04-.88a.67.67 0 0 1 .112-.144c.05-.05.099-.095.147-.135.094-.023.206-.039.319-.046h.006a1.457 1.457 0 0 1 .315.015l-.008-.001a1.999 1.999 0 0 1 .158.158.525.525 0 0 1 .057.072l-.011.428a1.336 1.336 0 0 1-.193.112l-.008.003a3.451 3.451 0 0 1-.584.216 1.679 1.679 0 0 0 .023.207l.742-.178zm-.287-.721a1.062 1.062 0 0 0-.204-.008h.003a1.034 1.034 0 0 0-.204.034 1.194 1.194 0 0 0-.045.185l-.001.008c-.01.056-.019.128-.025.2l-.001.009c.194-.065.363-.147.518-.247l-.009.005-.032-.187zm1.538-.311a.363.363 0 0 1 .127.129.602.602 0 0 1 .089.193l-.026.359a.335.335 0 0 1-.121.051h-.002a.885.885 0 0 1-.136.017h-.002l-.069-.066a1.82 1.82 0 0 0 .017-.187.574.574 0 0 0-.006-.147.678.678 0 0 0-.167.193 2.066 2.066 0 0 0-.133.262l-.005.014.009.664a.551.551 0 0 1-.139.017h-.009a.625.625 0 0 1-.15-.017.83.83 0 0 1-.144-.211l-.002-.005c.017-.08.037-.147.061-.213l-.004.011c.025-.073.054-.145.086-.216v-.104l-.034-.397-.25.063a1.632 1.632 0 0 1-.046-.087l-.003-.008a.378.378 0 0 1-.034-.128v-.002l.388-.19a.237.237 0 0 1 .08.032c.036.019.072.04.106.063a.427.427 0 0 1 .08.055l-.011.227c.072-.101.15-.19.237-.269l.001-.001c.08-.071.15-.106.21-.106z"/><path style="fill:var(--color1, #000)" d="M19.25 4.921h11.579v10.421H19.25z"/><path fill="#fff" style="fill:var(--color3, #fff)" d="M8.061 17.698c.308.18.532.378.673.596.141.211.221.468.24.769a5.27 5.27 0 0 1-.067 1.087 1.45 1.45 0 0 1-.298.375c-.139.138-.29.264-.45.377l-.011.007a4.14 4.14 0 0 1-.476.278l-.024.011c-.16.083-.292.132-.394.144l-2.087-.288-.481.288a1.317 1.317 0 0 1-.625-.433l.375-2.952-.115-3.5.279-.192c.09.013.221.064.394.154.18.083.327.17.442.26.226-.119.489-.218.765-.284l.023-.005c.282-.071.554-.112.817-.125s.497.003.702.048c.184.104.342.225.481.365.143.136.275.281.397.434l.007.009c.115.147.202.276.26.385l-.077 1.442-.75.75zm-.413-2.317a3.375 3.375 0 0 0-1.038-.038 2.84 2.84 0 0 0-1.106.317l-.048 1.606 2.192-.346c.038-.301.058-.583.058-.846a2.856 2.856 0 0 0-.058-.692zm-2.221 4.855 2.298-.211c.109-.449.131-.827.067-1.135-.058-.314-.218-.609-.481-.885l-1.884.135v2.096zm9.327-.278c.045.077.099.186.164.327.064.135.103.276.115.423l-1.298.635a.859.859 0 0 1-.279-.106 7.54 7.54 0 0 1-.356-.212 4.26 4.26 0 0 1-.271-.191l.011.008.039-.798c-.34.372-.676.683-1.01.933-.327.243-.583.365-.769.365a2.718 2.718 0 0 1-.385-.269 3.453 3.453 0 0 1-.428-.427l-.004-.005a1.215 1.215 0 0 1-.26-.461l.221-2.74-.712.183a1.51 1.51 0 0 1-.173-.327 1.43 1.43 0 0 1-.105-.427v-.006l1.298-.635c.167.083.343.192.529.327.192.135.34.282.442.442a7.264 7.264 0 0 0-.246 1.183l-.004.038c-.045.41-.064.795-.058 1.154.007.353.032.644.077.875.237-.096.494-.295.769-.596a6.65 6.65 0 0 0 .779-1.048l.048-2.125c.147-.039.33-.074.548-.106.224-.032.407-.029.548.01.1.099.189.21.265.329l.005.008c.077.122.147.25.211.385-.019.263-.09.542-.211.837a5.117 5.117 0 0 1-.465.905l.012-.021v.019l.115 1.327.837-.211zm3.741-3.731c.147.077.289.221.423.433.141.205.24.42.298.644l-.086 1.202a1.156 1.156 0 0 1-.414.173c-.167.032-.32.051-.461.058l-.231-.221c.032-.237.051-.446.058-.625a2.017 2.017 0 0 0-.019-.49 2.248 2.248 0 0 0-.558.644 6.729 6.729 0 0 0-.461.923l.029 2.221c-.141.038-.304.058-.49.058s-.353-.019-.5-.058a2.813 2.813 0 0 1-.483-.704l-.007-.017c.058-.267.125-.492.204-.711l-.012.038c.083-.244.179-.484.288-.721v-.346l-.115-1.327-.836.211a4.489 4.489 0 0 1-.164-.317 1.27 1.27 0 0 1-.115-.427v-.005l1.298-.635a.772.772 0 0 1 .269.106c.122.064.24.135.356.211.122.071.212.132.269.183l-.039.76c.263-.365.529-.667.798-.904s.503-.356.702-.356zm5.465 1.048a5.835 5.835 0 0 1-.496 1.36l.015-.033.221 3.163c-.064.141-.16.304-.288.49a4.76 4.76 0 0 1-.417.543l.004-.004a2.353 2.353 0 0 1-.442.413 4.77 4.77 0 0 1-.904.154 6.107 6.107 0 0 1-.999.018l.018.001a7.187 7.187 0 0 1-.949-.113l.045.007a2.773 2.773 0 0 1 .01-.385c.013-.147.032-.295.058-.442a1.55 1.55 0 0 1 .115-.356c.205.077.439.135.702.173.269.045.545.067.827.067s.542-.016.779-.048c.139-.311.24-.671.287-1.049l.002-.018c.045-.365.071-.808.077-1.327a5.789 5.789 0 0 1-1.087 1.029c-.372.256-.692.397-.962.423a1.904 1.904 0 0 1-.356-.269 4.195 4.195 0 0 1-.377-.432l-.008-.011a1.547 1.547 0 0 1-.231-.471l.202-2.654c.096-.205.234-.41.414-.616a3.08 3.08 0 0 1 .538-.51 8.793 8.793 0 0 1 1.331-.144h.015c.436-.019.917.054 1.442.221.071.077.135.17.192.279s.106.215.144.317c.045.096.07.17.077.221zm-3.029 2.894c.244-.09.513-.285.808-.586s.561-.657.798-1.067l-.01-1.317a5.162 5.162 0 0 0-.794.041l.026-.003a4.712 4.712 0 0 0-.745.153l.034-.008a4.98 4.98 0 0 0-.246.951l-.004.03c-.041.273-.066.59-.067.911v.002c.006.276.029.497.067.663s.083.244.135.231zm7.192-.49c.045.058.093.17.144.336.058.167.083.314.077.442a9.81 9.81 0 0 1-.655.274l-.21.073c-.301.109-.583.211-.846.308-.256.096-.468.173-.635.231a3.16 3.16 0 0 1-.625-.24 3.193 3.193 0 0 1-.602-.389l.006.004a1.553 1.553 0 0 1-.385-.461l.135-2.942c.09-.16.215-.321.375-.481.154-.154.313-.302.479-.442l.011-.009c.316-.076.688-.13 1.068-.153l.018-.001a5.003 5.003 0 0 1 1.057.052l-.028-.004c.058.032.135.103.231.211.1.1.198.204.292.31l.006.007c.096.109.16.189.192.24l-.039 1.433c-.167.122-.391.25-.673.385-.229.114-.537.247-.851.367l-.082.028c-.225.088-.564.199-.909.299l-.111.028a5.698 5.698 0 0 0 .077.693l2.481-.596zm-.961-2.414a3.283 3.283 0 0 0-.682-.028h.009a3.41 3.41 0 0 0-.683.115 4.21 4.21 0 0 0-.15.618l-.004.027a7.653 7.653 0 0 0-.084.671l-.002.031a7.28 7.28 0 0 0 .911-.366l-.045.02c.33-.157.604-.311.867-.48l-.031.019-.106-.625zm5.146-1.038c.147.077.289.221.423.433.141.205.24.42.298.644l-.087 1.202a1.159 1.159 0 0 1-.413.173 3.354 3.354 0 0 1-.461.058l-.231-.221c.032-.237.051-.446.058-.625a2.017 2.017 0 0 0-.019-.49 2.248 2.248 0 0 0-.558.644 6.845 6.845 0 0 0-.462.923l.029 2.221c-.141.038-.305.058-.49.058s-.353-.019-.5-.058a2.813 2.813 0 0 1-.483-.704l-.007-.017a7.557 7.557 0 0 1 .5-1.441l-.02.047v-.346l-.115-1.327-.837.211a3.786 3.786 0 0 1-.152-.29l-.011-.027a1.27 1.27 0 0 1-.115-.427v-.005l1.298-.635a.772.772 0 0 1 .269.106c.122.064.24.135.356.211.122.071.212.132.269.183l-.038.76c.263-.365.529-.667.798-.904s.503-.356.702-.356z"/></symbol>
<symbol id="icon-TikTok" viewBox="0 0 32 32"><path d="M0 0h32v32H0z"/></symbol></defs></svg>